<svg width="1829" height="390" viewBox="0 0 1829 390" fill="none" xmlns="http://www.w3.org/2000/svg">
<path d="M173.619 1.18379C138.981 5.12721 103.49 19.4088 76.3129 40.1917C67.1471 47.2259 52.0129 61.9338 44.5523 70.993C1.7076 123.323 -11.1885 193.026 10.0208 256.653C47.1102 367.602 173.3 421.318 278.6 371.013C298.423 361.527 313.558 351.189 329.118 336.268C396.369 271.788 409.372 170.751 360.346 91.8825C321.231 28.8943 247.052 -7.12937 173.619 1.18379ZM240.658 88.2588C272.738 101.688 297.89 130.784 307.483 165.742C310.147 175.44 310.467 177.998 310.467 195.051C310.467 210.931 310.04 214.981 308.122 222.228C305.244 232.567 302.58 239.814 301.514 239.814C300.981 239.814 228.508 90.7101 226.269 84.8482C225.63 83.3561 226.056 83.143 228.614 83.7825C230.319 84.2088 235.755 86.2338 240.658 88.2588ZM159.338 86.0206C158.912 87.0864 142.712 122.044 123.208 163.823C83.2405 249.406 87.5036 243.118 82.2813 224.253C79.7234 214.768 79.4036 211.784 79.4036 195.584C79.2971 179.81 79.6168 176.186 81.855 167.98C91.6602 130.784 115.321 102.967 149.959 87.8325C159.444 83.6759 160.19 83.5693 159.338 86.0206ZM206.979 181.409C214.439 196.756 220.301 209.439 220.088 209.652C219.981 209.865 207.512 209.865 192.59 209.759L165.306 209.439L178.735 181.409C186.089 166.061 192.377 153.485 192.804 153.485C193.123 153.485 199.518 166.061 206.979 181.409ZM241.51 257.08C242.256 258.146 252.594 282.765 256.431 292.784C257.177 294.809 236.394 304.401 224.244 307.492C204.101 312.821 179.162 312.181 159.764 305.786C149.959 302.589 135.358 295.661 134.612 293.85C134.292 292.997 137.489 284.044 141.752 274.026L149.426 255.801H194.935C230.106 255.801 240.764 256.121 241.51 257.08Z" fill="white"/>
<path d="M815.225 194.518V389.025H854.659H894.093V194.518V0.0114634H854.659H815.225V194.518Z" fill="white"/>
<path d="M1141.89 1.18372C1100.54 5.44688 1059.08 25.164 1028.6 54.7929C998.54 84.1021 980.848 115.969 972.215 156.576C969.551 168.832 969.338 172.136 969.231 194.518C969.231 216.047 969.551 220.523 971.682 231.288C980.102 272.853 998.22 305.893 1028.6 335.202C1076.24 381.351 1141.36 399.576 1206.26 385.188C1280.97 368.561 1339.06 309.09 1354.51 233.632C1368.26 165.955 1344.18 94.3337 1292.38 48.9311C1250.81 12.5877 1196.99 -4.57154 1141.89 1.18372ZM1182.5 80.4785C1230.14 88.685 1267.33 124.389 1277.24 171.497C1285.13 209.013 1272.87 249.939 1245.7 277.117C1216.81 306 1173.97 317.723 1134.43 307.598C1121.75 304.294 1103.31 295.448 1093.29 287.881C1071.23 271.042 1055.24 245.676 1049.59 218.285C1046.71 203.897 1047.14 180.023 1050.66 167.021C1066.64 107.443 1123.13 70.3535 1182.5 80.4785Z" fill="white"/>
<path d="M464.58 49.9969V99.1298L507.212 145.598C530.766 171.177 549.843 192.493 549.63 193.026C549.417 193.559 530.659 213.702 507.745 237.789C484.937 261.982 465.859 282.339 465.326 283.085C464.9 283.831 464.687 307.065 464.793 334.776L465.113 385.081L559.435 289.053C611.339 236.19 653.758 192.813 653.758 192.6C653.758 191.96 466.498 1.6101 465.433 1.29036C465.006 1.0772 464.58 23.0325 464.58 49.9969Z" fill="white"/>
<path d="M675.073 65.5575L611.446 130.038L616.562 135.686C619.333 138.671 631.056 150.927 642.567 162.757L663.563 184.18L701.505 145.172L739.554 106.057V53.5141C739.554 24.7377 739.341 1.07722 739.127 1.07722C738.914 1.07722 710.138 30.0667 675.073 65.5575Z" fill="white"/>
<path d="M1435.51 193.346V385.827H1479.21H1522.91V283.725L1523.02 181.729L1578.86 237.896L1634.6 294.169L1731.7 195.264L1828.68 96.4654L1828.79 48.5048V0.544316L1817.17 12.268C1810.78 18.7693 1767.29 62.7864 1720.61 110.321C1673.82 157.748 1635.24 196.65 1634.71 196.65C1634.18 196.65 1598.15 161.372 1554.67 118.314C1511.08 75.1496 1466.53 31.1325 1455.55 20.368L1435.51 0.757474V193.346Z" fill="white"/>
<path d="M1785.31 166.061L1742.35 208.373L1742.46 297.047V385.827H1785.63H1828.79V254.735C1828.79 182.581 1828.68 123.643 1828.58 123.643C1828.36 123.75 1808.97 142.827 1785.31 166.061Z" fill="white"/>
<path d="M637.238 229.689L611.232 255.694L618.586 263.474C635.319 280.953 738.701 386.893 739.127 386.893C739.34 386.893 739.553 363.019 739.553 333.817L739.447 280.847L701.931 242.478C681.361 221.376 664.202 204.003 663.882 203.79C663.563 203.684 651.626 215.301 637.238 229.689Z" fill="white"/>
</svg>
